<mxfile host="65bd71144e">
    <diagram name="Sida-1" id="S5pKBoL1bsgIUDStqbfe">
        <mxGraphModel dx="1262" dy="161" grid="1" gridSize="10" guides="1" tooltips="1" connect="1" arrows="1" fold="1" page="1" pageScale="1" pageWidth="827" pageHeight="1169" math="0" shadow="0">
            <root>
                <mxCell id="0"/>
                <mxCell id="1" parent="0"/>
                <mxCell id="lsyRAzRpwurkiqTD15_6-5" style="edgeStyle=none;rounded=0;orthogonalLoop=1;jettySize=auto;html=1;exitX=0.5;exitY=1;exitDx=0;exitDy=0;entryX=0.5;entryY=0;entryDx=0;entryDy=0;" parent="1" source="lsyRAzRpwurkiqTD15_6-1" target="lsyRAzRpwurkiqTD15_6-2" edge="1">
                    <mxGeometry relative="1" as="geometry"/>
                </mxCell>
                <mxCell id="lsyRAzRpwurkiqTD15_6-6" value="&lt;span style=&quot;background-color: rgb(0, 0, 102);&quot;&gt;Off-hook&lt;/span&gt;" style="edgeLabel;html=1;align=center;verticalAlign=middle;resizable=0;points=[];" parent="lsyRAzRpwurkiqTD15_6-5" vertex="1" connectable="0">
                    <mxGeometry x="0.0533" y="-2" relative="1" as="geometry">
                        <mxPoint as="offset"/>
                    </mxGeometry>
                </mxCell>
                <mxCell id="lsyRAzRpwurkiqTD15_6-1" value="Idle" style="rounded=1;whiteSpace=wrap;html=1;fillColor=#008a00;strokeColor=#005700;fontColor=#ffffff;" parent="1" vertex="1">
                    <mxGeometry x="-230" y="70" width="60" height="20" as="geometry"/>
                </mxCell>
                <mxCell id="lsyRAzRpwurkiqTD15_6-58" style="edgeStyle=orthogonalEdgeStyle;curved=1;rounded=0;orthogonalLoop=1;jettySize=auto;html=1;exitX=1;exitY=0.5;exitDx=0;exitDy=0;entryX=1;entryY=0;entryDx=0;entryDy=0;" parent="1" source="lsyRAzRpwurkiqTD15_6-2" target="lsyRAzRpwurkiqTD15_6-11" edge="1">
                    <mxGeometry relative="1" as="geometry"/>
                </mxCell>
                <mxCell id="lsyRAzRpwurkiqTD15_6-59" value="&lt;span style=&quot;background-color: rgb(77, 77, 77);&quot;&gt;off-hook&amp;nbsp;&lt;/span&gt;&lt;div&gt;&lt;span style=&quot;background-color: rgb(77, 77, 77);&quot;&gt;too long&lt;/span&gt;&lt;/div&gt;" style="edgeLabel;html=1;align=center;verticalAlign=middle;resizable=0;points=[];" parent="lsyRAzRpwurkiqTD15_6-58" vertex="1" connectable="0">
                    <mxGeometry x="0.0871" y="-27" relative="1" as="geometry">
                        <mxPoint as="offset"/>
                    </mxGeometry>
                </mxCell>
                <mxCell id="lsyRAzRpwurkiqTD15_6-62" style="edgeStyle=orthogonalEdgeStyle;curved=1;rounded=0;orthogonalLoop=1;jettySize=auto;html=1;exitX=0;exitY=0.5;exitDx=0;exitDy=0;" parent="1" source="lsyRAzRpwurkiqTD15_6-2" target="lsyRAzRpwurkiqTD15_6-7" edge="1">
                    <mxGeometry relative="1" as="geometry"/>
                </mxCell>
                <mxCell id="lsyRAzRpwurkiqTD15_6-63" value="dialing starts" style="edgeLabel;html=1;align=center;verticalAlign=middle;resizable=0;points=[];" parent="lsyRAzRpwurkiqTD15_6-62" vertex="1" connectable="0">
                    <mxGeometry x="-0.2261" y="21" relative="1" as="geometry">
                        <mxPoint as="offset"/>
                    </mxGeometry>
                </mxCell>
                <mxCell id="lsyRAzRpwurkiqTD15_6-2" value="ready" style="rounded=1;whiteSpace=wrap;html=1;fillColor=#008a00;strokeColor=#005700;fontColor=#ffffff;" parent="1" vertex="1">
                    <mxGeometry x="-230" y="180" width="60" height="20" as="geometry"/>
                </mxCell>
                <mxCell id="lsyRAzRpwurkiqTD15_6-19" style="edgeStyle=orthogonalEdgeStyle;curved=1;rounded=0;orthogonalLoop=1;jettySize=auto;html=1;exitX=0;exitY=0.25;exitDx=0;exitDy=0;entryX=0.5;entryY=0;entryDx=0;entryDy=0;" parent="1" source="lsyRAzRpwurkiqTD15_6-7" target="lsyRAzRpwurkiqTD15_6-20" edge="1">
                    <mxGeometry relative="1" as="geometry">
                        <mxPoint x="-530" y="370" as="targetPoint"/>
                    </mxGeometry>
                </mxCell>
                <mxCell id="lsyRAzRpwurkiqTD15_6-35" value="dialed line&amp;nbsp;&lt;div&gt;not idle&lt;/div&gt;" style="edgeLabel;html=1;align=center;verticalAlign=middle;resizable=0;points=[];" parent="lsyRAzRpwurkiqTD15_6-19" vertex="1" connectable="0">
                    <mxGeometry x="-0.1701" y="-4" relative="1" as="geometry">
                        <mxPoint x="-25" y="64" as="offset"/>
                    </mxGeometry>
                </mxCell>
                <mxCell id="lsyRAzRpwurkiqTD15_6-43" style="edgeStyle=orthogonalEdgeStyle;curved=1;rounded=0;orthogonalLoop=1;jettySize=auto;html=1;exitX=0.5;exitY=1;exitDx=0;exitDy=0;entryX=0.5;entryY=0;entryDx=0;entryDy=0;" parent="1" source="lsyRAzRpwurkiqTD15_6-7" target="lsyRAzRpwurkiqTD15_6-22" edge="1">
                    <mxGeometry relative="1" as="geometry"/>
                </mxCell>
                <mxCell id="lsyRAzRpwurkiqTD15_6-110" value="dailed number&amp;nbsp;&lt;div&gt;has a receicer&lt;/div&gt;" style="edgeLabel;html=1;align=center;verticalAlign=middle;resizable=0;points=[];" parent="lsyRAzRpwurkiqTD15_6-43" vertex="1" connectable="0">
                    <mxGeometry x="-0.081" y="-1" relative="1" as="geometry">
                        <mxPoint x="1" y="-2" as="offset"/>
                    </mxGeometry>
                </mxCell>
                <mxCell id="lsyRAzRpwurkiqTD15_6-44" style="edgeStyle=orthogonalEdgeStyle;curved=1;rounded=0;orthogonalLoop=1;jettySize=auto;html=1;exitX=1;exitY=0.5;exitDx=0;exitDy=0;entryX=0.75;entryY=0;entryDx=0;entryDy=0;" parent="1" source="lsyRAzRpwurkiqTD15_6-7" target="lsyRAzRpwurkiqTD15_6-11" edge="1">
                    <mxGeometry relative="1" as="geometry"/>
                </mxCell>
                <mxCell id="lsyRAzRpwurkiqTD15_6-45" value="&lt;span style=&quot;background-color: rgb(77, 77, 77);&quot;&gt;off-hook&lt;/span&gt;&lt;div&gt;&lt;span style=&quot;background-color: rgb(77, 77, 77);&quot;&gt;&amp;nbsp;too long&lt;/span&gt;&lt;/div&gt;" style="edgeLabel;html=1;align=center;verticalAlign=middle;resizable=0;points=[];" parent="lsyRAzRpwurkiqTD15_6-44" vertex="1" connectable="0">
                    <mxGeometry x="-0.1267" y="-3" relative="1" as="geometry">
                        <mxPoint x="-23" y="37" as="offset"/>
                    </mxGeometry>
                </mxCell>
                <mxCell id="lsyRAzRpwurkiqTD15_6-102" style="edgeStyle=orthogonalEdgeStyle;curved=1;rounded=0;orthogonalLoop=1;jettySize=auto;html=1;exitX=0.25;exitY=0;exitDx=0;exitDy=0;entryX=0.75;entryY=0;entryDx=0;entryDy=0;dashed=1;dashPattern=8 8;" parent="1" source="lsyRAzRpwurkiqTD15_6-7" target="lsyRAzRpwurkiqTD15_6-69" edge="1">
                    <mxGeometry relative="1" as="geometry">
                        <Array as="points">
                            <mxPoint x="-363" y="180"/>
                            <mxPoint x="-715" y="180"/>
                        </Array>
                    </mxGeometry>
                </mxCell>
                <mxCell id="lsyRAzRpwurkiqTD15_6-103" value="routing" style="edgeLabel;html=1;align=center;verticalAlign=middle;resizable=0;points=[];" parent="lsyRAzRpwurkiqTD15_6-102" vertex="1" connectable="0">
                    <mxGeometry x="0.1046" y="2" relative="1" as="geometry">
                        <mxPoint x="28" y="-2" as="offset"/>
                    </mxGeometry>
                </mxCell>
                <mxCell id="lsyRAzRpwurkiqTD15_6-7" value="dialing puls or tone" style="rounded=1;whiteSpace=wrap;html=1;fillColor=#008a00;strokeColor=#005700;fontColor=#ffffff;" parent="1" vertex="1">
                    <mxGeometry x="-380" y="260" width="70" height="40" as="geometry"/>
                </mxCell>
                <mxCell id="lsyRAzRpwurkiqTD15_6-48" style="edgeStyle=orthogonalEdgeStyle;curved=1;rounded=0;orthogonalLoop=1;jettySize=auto;html=1;exitX=0.5;exitY=1;exitDx=0;exitDy=0;entryX=0.5;entryY=0;entryDx=0;entryDy=0;" parent="1" source="lsyRAzRpwurkiqTD15_6-11" target="lsyRAzRpwurkiqTD15_6-47" edge="1">
                    <mxGeometry relative="1" as="geometry"/>
                </mxCell>
                <mxCell id="lsyRAzRpwurkiqTD15_6-49" value="&lt;span style=&quot;background-color: rgb(77, 77, 77);&quot;&gt;Timer&lt;/span&gt;" style="edgeLabel;html=1;align=center;verticalAlign=middle;resizable=0;points=[];" parent="lsyRAzRpwurkiqTD15_6-48" vertex="1" connectable="0">
                    <mxGeometry x="-0.103" relative="1" as="geometry">
                        <mxPoint as="offset"/>
                    </mxGeometry>
                </mxCell>
                <mxCell id="lsyRAzRpwurkiqTD15_6-114" style="edgeStyle=orthogonalEdgeStyle;curved=1;rounded=0;orthogonalLoop=1;jettySize=auto;html=1;exitX=0.25;exitY=1;exitDx=0;exitDy=0;entryX=0.75;entryY=0;entryDx=0;entryDy=0;" parent="1" source="lsyRAzRpwurkiqTD15_6-11" target="lsyRAzRpwurkiqTD15_6-50" edge="1">
                    <mxGeometry relative="1" as="geometry">
                        <Array as="points">
                            <mxPoint x="-90" y="550"/>
                            <mxPoint x="-90" y="628"/>
                            <mxPoint x="-175" y="628"/>
                        </Array>
                    </mxGeometry>
                </mxCell>
                <mxCell id="lsyRAzRpwurkiqTD15_6-115" value="&lt;span style=&quot;background-color: rgb(153, 76, 0);&quot;&gt;on-hook&lt;/span&gt;" style="edgeLabel;html=1;align=center;verticalAlign=middle;resizable=0;points=[];fontFamily=Helvetica;fontSize=11;fontColor=default;labelBackgroundColor=default;" parent="lsyRAzRpwurkiqTD15_6-114" vertex="1" connectable="0">
                    <mxGeometry x="0.1341" y="1" relative="1" as="geometry">
                        <mxPoint x="12" y="-4" as="offset"/>
                    </mxGeometry>
                </mxCell>
                <mxCell id="lsyRAzRpwurkiqTD15_6-11" value="timeout" style="rounded=1;whiteSpace=wrap;html=1;fillColor=#a20025;strokeColor=#6F0000;fontColor=#ffffff;" parent="1" vertex="1">
                    <mxGeometry x="-90" y="530" width="60" height="20" as="geometry"/>
                </mxCell>
                <mxCell id="lsyRAzRpwurkiqTD15_6-118" style="edgeStyle=orthogonalEdgeStyle;shape=connector;curved=1;rounded=0;orthogonalLoop=1;jettySize=auto;html=1;exitX=0.5;exitY=1;exitDx=0;exitDy=0;strokeColor=default;align=center;verticalAlign=middle;fontFamily=Helvetica;fontSize=11;fontColor=default;labelBackgroundColor=default;endArrow=classic;entryX=0;entryY=0.75;entryDx=0;entryDy=0;" parent="1" source="lsyRAzRpwurkiqTD15_6-20" target="lsyRAzRpwurkiqTD15_6-50" edge="1">
                    <mxGeometry relative="1" as="geometry">
                        <mxPoint x="-220" y="660" as="targetPoint"/>
                    </mxGeometry>
                </mxCell>
                <mxCell id="lsyRAzRpwurkiqTD15_6-120" value="&lt;span style=&quot;background-color: rgb(153, 76, 0);&quot;&gt;on-hook&lt;/span&gt;" style="edgeLabel;html=1;align=center;verticalAlign=middle;resizable=0;points=[];fontFamily=Helvetica;fontSize=11;fontColor=default;labelBackgroundColor=default;" parent="lsyRAzRpwurkiqTD15_6-118" vertex="1" connectable="0">
                    <mxGeometry x="-0.4196" y="37" relative="1" as="geometry">
                        <mxPoint as="offset"/>
                    </mxGeometry>
                </mxCell>
                <mxCell id="lsyRAzRpwurkiqTD15_6-122" style="edgeStyle=orthogonalEdgeStyle;shape=connector;curved=1;rounded=0;orthogonalLoop=1;jettySize=auto;html=1;exitX=0.75;exitY=1;exitDx=0;exitDy=0;entryX=0.25;entryY=0;entryDx=0;entryDy=0;strokeColor=default;align=center;verticalAlign=middle;fontFamily=Helvetica;fontSize=11;fontColor=default;labelBackgroundColor=default;endArrow=classic;" parent="1" source="lsyRAzRpwurkiqTD15_6-20" target="lsyRAzRpwurkiqTD15_6-11" edge="1">
                    <mxGeometry relative="1" as="geometry"/>
                </mxCell>
                <mxCell id="lsyRAzRpwurkiqTD15_6-123" value="&lt;span style=&quot;background-color: rgb(77, 77, 77);&quot;&gt;Timer&lt;/span&gt;" style="edgeLabel;html=1;align=center;verticalAlign=middle;resizable=0;points=[];fontFamily=Helvetica;fontSize=11;fontColor=default;labelBackgroundColor=default;" parent="lsyRAzRpwurkiqTD15_6-122" vertex="1" connectable="0">
                    <mxGeometry x="-0.3336" y="6" relative="1" as="geometry">
                        <mxPoint x="98" y="11" as="offset"/>
                    </mxGeometry>
                </mxCell>
                <mxCell id="lsyRAzRpwurkiqTD15_6-20" value="busy" style="rounded=1;whiteSpace=wrap;html=1;fillColor=#a20025;strokeColor=#6F0000;fontColor=#ffffff;" parent="1" vertex="1">
                    <mxGeometry x="-540" y="370" width="60" height="20" as="geometry"/>
                </mxCell>
                <mxCell id="lsyRAzRpwurkiqTD15_6-116" style="edgeStyle=orthogonalEdgeStyle;shape=connector;curved=1;rounded=0;orthogonalLoop=1;jettySize=auto;html=1;exitX=0.5;exitY=1;exitDx=0;exitDy=0;entryX=0;entryY=0.25;entryDx=0;entryDy=0;strokeColor=default;align=center;verticalAlign=middle;fontFamily=Helvetica;fontSize=11;fontColor=default;labelBackgroundColor=default;endArrow=classic;" parent="1" source="lsyRAzRpwurkiqTD15_6-21" target="lsyRAzRpwurkiqTD15_6-50" edge="1">
                    <mxGeometry relative="1" as="geometry"/>
                </mxCell>
                <mxCell id="lsyRAzRpwurkiqTD15_6-117" value="&lt;span style=&quot;background-color: rgb(153, 76, 0);&quot;&gt;on hook&lt;/span&gt;" style="edgeLabel;html=1;align=center;verticalAlign=middle;resizable=0;points=[];fontFamily=Helvetica;fontSize=11;fontColor=default;labelBackgroundColor=default;" parent="lsyRAzRpwurkiqTD15_6-116" vertex="1" connectable="0">
                    <mxGeometry x="-0.2996" y="33" relative="1" as="geometry">
                        <mxPoint y="-3" as="offset"/>
                    </mxGeometry>
                </mxCell>
                <mxCell id="lsyRAzRpwurkiqTD15_6-121" style="edgeStyle=orthogonalEdgeStyle;shape=connector;curved=1;rounded=0;orthogonalLoop=1;jettySize=auto;html=1;exitX=0.75;exitY=1;exitDx=0;exitDy=0;strokeColor=default;align=center;verticalAlign=middle;fontFamily=Helvetica;fontSize=11;fontColor=default;labelBackgroundColor=default;endArrow=classic;entryX=0.5;entryY=0;entryDx=0;entryDy=0;" parent="1" source="lsyRAzRpwurkiqTD15_6-21" target="lsyRAzRpwurkiqTD15_6-11" edge="1">
                    <mxGeometry relative="1" as="geometry">
                        <mxPoint x="-100.00000000000023" y="490" as="targetPoint"/>
                        <Array as="points">
                            <mxPoint x="-415" y="430"/>
                            <mxPoint x="-60" y="430"/>
                        </Array>
                    </mxGeometry>
                </mxCell>
                <mxCell id="lsyRAzRpwurkiqTD15_6-21" value="fail" style="rounded=1;whiteSpace=wrap;html=1;fillColor=#a20025;strokeColor=#6F0000;fontColor=#ffffff;" parent="1" vertex="1">
                    <mxGeometry x="-460" y="370" width="60" height="20" as="geometry"/>
                </mxCell>
                <mxCell id="lsyRAzRpwurkiqTD15_6-25" style="edgeStyle=none;rounded=0;orthogonalLoop=1;jettySize=auto;html=1;exitX=0.5;exitY=1;exitDx=0;exitDy=0;entryX=0.5;entryY=0;entryDx=0;entryDy=0;" parent="1" source="lsyRAzRpwurkiqTD15_6-22" target="lsyRAzRpwurkiqTD15_6-23" edge="1">
                    <mxGeometry relative="1" as="geometry"/>
                </mxCell>
                <mxCell id="lsyRAzRpwurkiqTD15_6-38" value="dialed line has&amp;nbsp;&lt;div&gt;status idle&lt;/div&gt;" style="edgeLabel;html=1;align=center;verticalAlign=middle;resizable=0;points=[];" parent="lsyRAzRpwurkiqTD15_6-25" vertex="1" connectable="0">
                    <mxGeometry x="-0.2305" y="-2" relative="1" as="geometry">
                        <mxPoint x="2" y="41" as="offset"/>
                    </mxGeometry>
                </mxCell>
                <mxCell id="3" style="edgeStyle=orthogonalEdgeStyle;html=1;exitX=1;exitY=0.75;exitDx=0;exitDy=0;entryX=0.25;entryY=0;entryDx=0;entryDy=0;curved=1;" parent="1" source="lsyRAzRpwurkiqTD15_6-22" target="lsyRAzRpwurkiqTD15_6-28" edge="1">
                    <mxGeometry relative="1" as="geometry">
                        <Array as="points">
                            <mxPoint x="-315" y="390"/>
                            <mxPoint x="-210" y="390"/>
                        </Array>
                    </mxGeometry>
                </mxCell>
                <mxCell id="6" value="&lt;span style=&quot;background-color: rgb(153, 76, 0);&quot;&gt;on-hook&lt;/span&gt;" style="edgeLabel;html=1;align=center;verticalAlign=middle;resizable=0;points=[];" parent="3" vertex="1" connectable="0">
                    <mxGeometry x="0.1377" y="-18" relative="1" as="geometry">
                        <mxPoint x="8" y="61" as="offset"/>
                    </mxGeometry>
                </mxCell>
                <mxCell id="4" style="edgeStyle=orthogonalEdgeStyle;html=1;exitX=1;exitY=0.25;exitDx=0;exitDy=0;entryX=0.75;entryY=0;entryDx=0;entryDy=0;curved=1;" parent="1" source="lsyRAzRpwurkiqTD15_6-22" target="lsyRAzRpwurkiqTD15_6-28" edge="1">
                    <mxGeometry relative="1" as="geometry"/>
                </mxCell>
                <mxCell id="5" value="&lt;span style=&quot;background-color: rgb(77, 77, 77);&quot;&gt;Timer&lt;/span&gt;" style="edgeLabel;html=1;align=center;verticalAlign=middle;resizable=0;points=[];" parent="4" vertex="1" connectable="0">
                    <mxGeometry x="-0.357" y="-28" relative="1" as="geometry">
                        <mxPoint x="48" y="82" as="offset"/>
                    </mxGeometry>
                </mxCell>
                <mxCell id="lsyRAzRpwurkiqTD15_6-22" value="ringing" style="rounded=1;whiteSpace=wrap;html=1;fillColor=#008a00;strokeColor=#005700;fontColor=#ffffff;" parent="1" vertex="1">
                    <mxGeometry x="-375" y="370" width="60" height="20" as="geometry"/>
                </mxCell>
                <mxCell id="lsyRAzRpwurkiqTD15_6-56" style="edgeStyle=orthogonalEdgeStyle;curved=1;rounded=0;orthogonalLoop=1;jettySize=auto;html=1;exitX=0.5;exitY=1;exitDx=0;exitDy=0;entryX=0.25;entryY=0;entryDx=0;entryDy=0;" parent="1" source="lsyRAzRpwurkiqTD15_6-23" target="lsyRAzRpwurkiqTD15_6-50" edge="1">
                    <mxGeometry relative="1" as="geometry"/>
                </mxCell>
                <mxCell id="lsyRAzRpwurkiqTD15_6-57" value="&lt;span style=&quot;background-color: rgb(153, 76, 0);&quot;&gt;on hook&lt;/span&gt;" style="edgeLabel;html=1;align=center;verticalAlign=middle;resizable=0;points=[];" parent="lsyRAzRpwurkiqTD15_6-56" vertex="1" connectable="0">
                    <mxGeometry x="-0.0593" y="1" relative="1" as="geometry">
                        <mxPoint x="-46" y="-27" as="offset"/>
                    </mxGeometry>
                </mxCell>
                <mxCell id="lsyRAzRpwurkiqTD15_6-106" style="edgeStyle=orthogonalEdgeStyle;curved=1;rounded=0;orthogonalLoop=1;jettySize=auto;html=1;exitX=1;exitY=0.5;exitDx=0;exitDy=0;entryX=0;entryY=0.5;entryDx=0;entryDy=0;" parent="1" source="lsyRAzRpwurkiqTD15_6-23" target="lsyRAzRpwurkiqTD15_6-28" edge="1">
                    <mxGeometry relative="1" as="geometry"/>
                </mxCell>
                <mxCell id="lsyRAzRpwurkiqTD15_6-109" value="&lt;span style=&quot;background-color: rgb(255, 51, 153);&quot;&gt;receiver&amp;nbsp;&lt;/span&gt;&lt;div&gt;&lt;span style=&quot;background-color: rgb(255, 51, 153);&quot;&gt;on-hook&lt;/span&gt;&lt;/div&gt;" style="edgeLabel;html=1;align=center;verticalAlign=middle;resizable=0;points=[];" parent="lsyRAzRpwurkiqTD15_6-106" vertex="1" connectable="0">
                    <mxGeometry x="-0.0336" y="-2" relative="1" as="geometry">
                        <mxPoint as="offset"/>
                    </mxGeometry>
                </mxCell>
                <mxCell id="lsyRAzRpwurkiqTD15_6-23" value="connected" style="rounded=1;whiteSpace=wrap;html=1;fillColor=#008a00;strokeColor=#005700;fontColor=#ffffff;" parent="1" vertex="1">
                    <mxGeometry x="-380" y="530" width="70" height="20" as="geometry"/>
                </mxCell>
                <mxCell id="lsyRAzRpwurkiqTD15_6-27" style="edgeStyle=orthogonalEdgeStyle;curved=1;rounded=0;orthogonalLoop=1;jettySize=auto;html=1;exitX=0;exitY=0.75;exitDx=0;exitDy=0;entryX=0.5;entryY=0;entryDx=0;entryDy=0;" parent="1" source="lsyRAzRpwurkiqTD15_6-7" target="lsyRAzRpwurkiqTD15_6-21" edge="1">
                    <mxGeometry relative="1" as="geometry">
                        <mxPoint x="-429" y="360" as="targetPoint"/>
                    </mxGeometry>
                </mxCell>
                <mxCell id="lsyRAzRpwurkiqTD15_6-36" value="no matching&amp;nbsp;&lt;div&gt;number&lt;/div&gt;" style="edgeLabel;html=1;align=center;verticalAlign=middle;resizable=0;points=[];" parent="lsyRAzRpwurkiqTD15_6-27" vertex="1" connectable="0">
                    <mxGeometry x="-0.0752" y="-1" relative="1" as="geometry">
                        <mxPoint x="7" y="26" as="offset"/>
                    </mxGeometry>
                </mxCell>
                <mxCell id="lsyRAzRpwurkiqTD15_6-46" style="edgeStyle=orthogonalEdgeStyle;curved=1;rounded=0;orthogonalLoop=1;jettySize=auto;html=1;exitX=1;exitY=0.5;exitDx=0;exitDy=0;entryX=0;entryY=0.5;entryDx=0;entryDy=0;" parent="1" source="lsyRAzRpwurkiqTD15_6-28" target="lsyRAzRpwurkiqTD15_6-11" edge="1">
                    <mxGeometry relative="1" as="geometry"/>
                </mxCell>
                <mxCell id="9" value="&lt;span style=&quot;background-color: rgb(77, 77, 77);&quot;&gt;Timer&lt;/span&gt;" style="edgeLabel;html=1;align=center;verticalAlign=middle;resizable=0;points=[];" parent="lsyRAzRpwurkiqTD15_6-46" vertex="1" connectable="0">
                    <mxGeometry x="0.1943" y="-2" relative="1" as="geometry">
                        <mxPoint x="-6" y="-2" as="offset"/>
                    </mxGeometry>
                </mxCell>
                <mxCell id="lsyRAzRpwurkiqTD15_6-54" style="edgeStyle=orthogonalEdgeStyle;curved=1;rounded=0;orthogonalLoop=1;jettySize=auto;html=1;exitX=0.5;exitY=1;exitDx=0;exitDy=0;entryX=0.5;entryY=0;entryDx=0;entryDy=0;" parent="1" source="lsyRAzRpwurkiqTD15_6-28" target="lsyRAzRpwurkiqTD15_6-50" edge="1">
                    <mxGeometry relative="1" as="geometry"/>
                </mxCell>
                <mxCell id="lsyRAzRpwurkiqTD15_6-55" value="&lt;span style=&quot;background-color: rgb(153, 76, 0);&quot;&gt;on-hook&lt;/span&gt;" style="edgeLabel;html=1;align=center;verticalAlign=middle;resizable=0;points=[];" parent="lsyRAzRpwurkiqTD15_6-54" vertex="1" connectable="0">
                    <mxGeometry x="-0.1077" y="-12" relative="1" as="geometry">
                        <mxPoint x="12" y="-9" as="offset"/>
                    </mxGeometry>
                </mxCell>
                <mxCell id="lsyRAzRpwurkiqTD15_6-28" value="disconnected" style="rounded=1;whiteSpace=wrap;html=1;fillColor=#008a00;strokeColor=#005700;fontColor=#ffffff;" parent="1" vertex="1">
                    <mxGeometry x="-230" y="530" width="80" height="20" as="geometry"/>
                </mxCell>
                <mxCell id="lsyRAzRpwurkiqTD15_6-52" style="edgeStyle=orthogonalEdgeStyle;curved=1;rounded=0;orthogonalLoop=1;jettySize=auto;html=1;exitX=0.5;exitY=1;exitDx=0;exitDy=0;entryX=1;entryY=0.5;entryDx=0;entryDy=0;" parent="1" source="lsyRAzRpwurkiqTD15_6-47" target="lsyRAzRpwurkiqTD15_6-50" edge="1">
                    <mxGeometry relative="1" as="geometry">
                        <mxPoint x="-210.0000000000001" y="875" as="targetPoint"/>
                    </mxGeometry>
                </mxCell>
                <mxCell id="lsyRAzRpwurkiqTD15_6-53" value="&lt;span style=&quot;background-color: rgb(153, 76, 0);&quot;&gt;on-hook&lt;/span&gt;" style="edgeLabel;html=1;align=center;verticalAlign=middle;resizable=0;points=[];" parent="lsyRAzRpwurkiqTD15_6-52" vertex="1" connectable="0">
                    <mxGeometry x="0.1165" y="-41" relative="1" as="geometry">
                        <mxPoint x="5" y="16" as="offset"/>
                    </mxGeometry>
                </mxCell>
                <mxCell id="lsyRAzRpwurkiqTD15_6-47" value="abandoned" style="rounded=1;whiteSpace=wrap;html=1;fillColor=#a20025;strokeColor=#6F0000;fontColor=#ffffff;" parent="1" vertex="1">
                    <mxGeometry x="-100" y="625" width="80" height="20" as="geometry"/>
                </mxCell>
                <mxCell id="lsyRAzRpwurkiqTD15_6-50" value="Idle" style="rounded=1;whiteSpace=wrap;html=1;fillColor=#008a00;strokeColor=#005700;fontColor=#ffffff;" parent="1" vertex="1">
                    <mxGeometry x="-220" y="705" width="60" height="20" as="geometry"/>
                </mxCell>
                <mxCell id="lsyRAzRpwurkiqTD15_6-72" style="edgeStyle=orthogonalEdgeStyle;curved=1;rounded=0;orthogonalLoop=1;jettySize=auto;html=1;exitX=0.5;exitY=1;exitDx=0;exitDy=0;entryX=0.5;entryY=0;entryDx=0;entryDy=0;" parent="1" source="lsyRAzRpwurkiqTD15_6-68" target="lsyRAzRpwurkiqTD15_6-69" edge="1">
                    <mxGeometry relative="1" as="geometry"/>
                </mxCell>
                <mxCell id="lsyRAzRpwurkiqTD15_6-68" value="Idle" style="rounded=1;whiteSpace=wrap;html=1;fillColor=#008a00;strokeColor=#005700;fontColor=#ffffff;" parent="1" vertex="1">
                    <mxGeometry x="-760" y="70" width="60" height="20" as="geometry"/>
                </mxCell>
                <mxCell id="lsyRAzRpwurkiqTD15_6-76" style="edgeStyle=orthogonalEdgeStyle;curved=1;rounded=0;orthogonalLoop=1;jettySize=auto;html=1;exitX=1;exitY=0.5;exitDx=0;exitDy=0;entryX=0.5;entryY=0;entryDx=0;entryDy=0;" parent="1" source="lsyRAzRpwurkiqTD15_6-69" target="lsyRAzRpwurkiqTD15_6-75" edge="1">
                    <mxGeometry relative="1" as="geometry"/>
                </mxCell>
                <mxCell id="lsyRAzRpwurkiqTD15_6-77" value="&lt;span style=&quot;background-color: rgb(0, 0, 102);&quot;&gt;off-hook&lt;/span&gt;" style="edgeLabel;html=1;align=center;verticalAlign=middle;resizable=0;points=[];" parent="lsyRAzRpwurkiqTD15_6-76" vertex="1" connectable="0">
                    <mxGeometry x="0.3872" y="-7" relative="1" as="geometry">
                        <mxPoint as="offset"/>
                    </mxGeometry>
                </mxCell>
                <mxCell id="lsyRAzRpwurkiqTD15_6-82" style="edgeStyle=orthogonalEdgeStyle;curved=1;rounded=0;orthogonalLoop=1;jettySize=auto;html=1;exitX=0;exitY=0.75;exitDx=0;exitDy=0;entryX=0;entryY=0;entryDx=0;entryDy=0;" parent="1" source="lsyRAzRpwurkiqTD15_6-69" target="lsyRAzRpwurkiqTD15_6-74" edge="1">
                    <mxGeometry relative="1" as="geometry"/>
                </mxCell>
                <mxCell id="lsyRAzRpwurkiqTD15_6-88" value="&amp;nbsp;&lt;span style=&quot;background-color: rgb(255, 51, 153);&quot;&gt;orginator on-hook&lt;/span&gt;" style="edgeLabel;html=1;align=center;verticalAlign=middle;resizable=0;points=[];" parent="lsyRAzRpwurkiqTD15_6-82" vertex="1" connectable="0">
                    <mxGeometry x="-0.3707" y="3" relative="1" as="geometry">
                        <mxPoint as="offset"/>
                    </mxGeometry>
                </mxCell>
                <mxCell id="7" style="edgeStyle=orthogonalEdgeStyle;curved=1;html=1;exitX=-0.012;exitY=0.335;exitDx=0;exitDy=0;entryX=0;entryY=0.75;entryDx=0;entryDy=0;exitPerimeter=0;" parent="1" source="lsyRAzRpwurkiqTD15_6-69" target="lsyRAzRpwurkiqTD15_6-74" edge="1">
                    <mxGeometry relative="1" as="geometry">
                        <Array as="points">
                            <mxPoint x="-810" y="270"/>
                            <mxPoint x="-810" y="655"/>
                        </Array>
                    </mxGeometry>
                </mxCell>
                <mxCell id="8" value="&lt;span style=&quot;background-color: rgb(77, 77, 77);&quot;&gt;Timer&lt;/span&gt;" style="edgeLabel;html=1;align=center;verticalAlign=middle;resizable=0;points=[];" parent="7" vertex="1" connectable="0">
                    <mxGeometry x="-0.4389" y="6" relative="1" as="geometry">
                        <mxPoint as="offset"/>
                    </mxGeometry>
                </mxCell>
                <mxCell id="lsyRAzRpwurkiqTD15_6-69" value="incoming call" style="rounded=1;whiteSpace=wrap;html=1;fillColor=#008a00;strokeColor=#005700;fontColor=#ffffff;" parent="1" vertex="1">
                    <mxGeometry x="-760" y="260" width="60" height="30" as="geometry"/>
                </mxCell>
                <mxCell id="lsyRAzRpwurkiqTD15_6-74" value="Idle" style="rounded=1;whiteSpace=wrap;html=1;fillColor=#008a00;strokeColor=#005700;fontColor=#ffffff;" parent="1" vertex="1">
                    <mxGeometry x="-780" y="640" width="60" height="20" as="geometry"/>
                </mxCell>
                <mxCell id="lsyRAzRpwurkiqTD15_6-80" style="edgeStyle=orthogonalEdgeStyle;curved=1;rounded=0;orthogonalLoop=1;jettySize=auto;html=1;exitX=1;exitY=0.75;exitDx=0;exitDy=0;entryX=0.5;entryY=0;entryDx=0;entryDy=0;" parent="1" source="lsyRAzRpwurkiqTD15_6-75" target="lsyRAzRpwurkiqTD15_6-78" edge="1">
                    <mxGeometry relative="1" as="geometry"/>
                </mxCell>
                <mxCell id="lsyRAzRpwurkiqTD15_6-113" value="&lt;span style=&quot;background-color: rgb(255, 51, 153);&quot;&gt;originator&amp;nbsp;&lt;/span&gt;&lt;div&gt;&lt;span style=&quot;background-color: rgb(255, 51, 153);&quot;&gt;on-hook&lt;/span&gt;&lt;/div&gt;" style="edgeLabel;html=1;align=center;verticalAlign=middle;resizable=0;points=[];" parent="lsyRAzRpwurkiqTD15_6-80" vertex="1" connectable="0">
                    <mxGeometry x="0.14" y="-1" relative="1" as="geometry">
                        <mxPoint as="offset"/>
                    </mxGeometry>
                </mxCell>
                <mxCell id="lsyRAzRpwurkiqTD15_6-81" style="edgeStyle=orthogonalEdgeStyle;curved=1;rounded=0;orthogonalLoop=1;jettySize=auto;html=1;exitX=0;exitY=0.5;exitDx=0;exitDy=0;entryX=0.25;entryY=0;entryDx=0;entryDy=0;" parent="1" source="lsyRAzRpwurkiqTD15_6-75" target="lsyRAzRpwurkiqTD15_6-74" edge="1">
                    <mxGeometry relative="1" as="geometry"/>
                </mxCell>
                <mxCell id="lsyRAzRpwurkiqTD15_6-89" value="&lt;span style=&quot;background-color: rgb(153, 76, 0);&quot;&gt;on-hook&lt;/span&gt;" style="edgeLabel;html=1;align=center;verticalAlign=middle;resizable=0;points=[];" parent="lsyRAzRpwurkiqTD15_6-81" vertex="1" connectable="0">
                    <mxGeometry x="-0.1654" y="18" relative="1" as="geometry">
                        <mxPoint as="offset"/>
                    </mxGeometry>
                </mxCell>
                <mxCell id="lsyRAzRpwurkiqTD15_6-111" style="edgeStyle=orthogonalEdgeStyle;curved=1;rounded=0;orthogonalLoop=1;jettySize=auto;html=1;exitX=1;exitY=0.25;exitDx=0;exitDy=0;entryX=0.25;entryY=0;entryDx=0;entryDy=0;dashed=1;dashPattern=8 8;startArrow=classic;startFill=1;" parent="1" source="lsyRAzRpwurkiqTD15_6-75" target="lsyRAzRpwurkiqTD15_6-23" edge="1">
                    <mxGeometry relative="1" as="geometry">
                        <Array as="points">
                            <mxPoint x="-550" y="375"/>
                            <mxPoint x="-550" y="475"/>
                            <mxPoint x="-362" y="475"/>
                        </Array>
                    </mxGeometry>
                </mxCell>
                <mxCell id="lsyRAzRpwurkiqTD15_6-112" value="Audio line&amp;nbsp;&lt;div&gt;established&lt;/div&gt;" style="edgeLabel;html=1;align=center;verticalAlign=middle;resizable=0;points=[];" parent="lsyRAzRpwurkiqTD15_6-111" vertex="1" connectable="0">
                    <mxGeometry x="0.2663" y="11" relative="1" as="geometry">
                        <mxPoint x="-3" y="11" as="offset"/>
                    </mxGeometry>
                </mxCell>
                <mxCell id="lsyRAzRpwurkiqTD15_6-75" value="connected" style="rounded=1;whiteSpace=wrap;html=1;fillColor=#008a00;strokeColor=#005700;fontColor=#ffffff;" parent="1" vertex="1">
                    <mxGeometry x="-700" y="370" width="70" height="20" as="geometry"/>
                </mxCell>
                <mxCell id="lsyRAzRpwurkiqTD15_6-83" style="edgeStyle=orthogonalEdgeStyle;curved=1;rounded=0;orthogonalLoop=1;jettySize=auto;html=1;exitX=0;exitY=0.5;exitDx=0;exitDy=0;entryX=0.5;entryY=0;entryDx=0;entryDy=0;" parent="1" source="lsyRAzRpwurkiqTD15_6-78" target="lsyRAzRpwurkiqTD15_6-74" edge="1">
                    <mxGeometry relative="1" as="geometry"/>
                </mxCell>
                <mxCell id="lsyRAzRpwurkiqTD15_6-90" value="&lt;span style=&quot;background-color: rgb(153, 76, 0);&quot;&gt;on-hook&lt;/span&gt;" style="edgeLabel;html=1;align=center;verticalAlign=middle;resizable=0;points=[];" parent="lsyRAzRpwurkiqTD15_6-83" vertex="1" connectable="0">
                    <mxGeometry x="0.0316" y="27" relative="1" as="geometry">
                        <mxPoint as="offset"/>
                    </mxGeometry>
                </mxCell>
                <mxCell id="lsyRAzRpwurkiqTD15_6-87" style="edgeStyle=orthogonalEdgeStyle;curved=1;rounded=0;orthogonalLoop=1;jettySize=auto;html=1;exitX=0.5;exitY=1;exitDx=0;exitDy=0;entryX=0.5;entryY=0;entryDx=0;entryDy=0;" parent="1" source="lsyRAzRpwurkiqTD15_6-78" target="lsyRAzRpwurkiqTD15_6-85" edge="1">
                    <mxGeometry relative="1" as="geometry"/>
                </mxCell>
                <mxCell id="lsyRAzRpwurkiqTD15_6-96" value="&lt;span style=&quot;background-color: rgb(77, 77, 77);&quot;&gt;timer&lt;/span&gt;" style="edgeLabel;html=1;align=center;verticalAlign=middle;resizable=0;points=[];" parent="lsyRAzRpwurkiqTD15_6-87" vertex="1" connectable="0">
                    <mxGeometry x="-0.33" y="1" relative="1" as="geometry">
                        <mxPoint as="offset"/>
                    </mxGeometry>
                </mxCell>
                <mxCell id="lsyRAzRpwurkiqTD15_6-78" value="disconnected" style="rounded=1;whiteSpace=wrap;html=1;fillColor=#008a00;strokeColor=#005700;fontColor=#ffffff;" parent="1" vertex="1">
                    <mxGeometry x="-650" y="465" width="80" height="20" as="geometry"/>
                </mxCell>
                <mxCell id="lsyRAzRpwurkiqTD15_6-95" style="edgeStyle=orthogonalEdgeStyle;curved=1;rounded=0;orthogonalLoop=1;jettySize=auto;html=1;exitX=0.5;exitY=1;exitDx=0;exitDy=0;entryX=0.5;entryY=0;entryDx=0;entryDy=0;" parent="1" source="lsyRAzRpwurkiqTD15_6-85" target="lsyRAzRpwurkiqTD15_6-93" edge="1">
                    <mxGeometry relative="1" as="geometry"/>
                </mxCell>
                <mxCell id="lsyRAzRpwurkiqTD15_6-97" value="&lt;span style=&quot;background-color: rgb(77, 77, 77);&quot;&gt;timer&lt;/span&gt;" style="edgeLabel;html=1;align=center;verticalAlign=middle;resizable=0;points=[];" parent="lsyRAzRpwurkiqTD15_6-95" vertex="1" connectable="0">
                    <mxGeometry x="-0.13" y="1" relative="1" as="geometry">
                        <mxPoint as="offset"/>
                    </mxGeometry>
                </mxCell>
                <mxCell id="lsyRAzRpwurkiqTD15_6-85" value="timeout" style="rounded=1;whiteSpace=wrap;html=1;fillColor=#a20025;strokeColor=#6F0000;fontColor=#ffffff;" parent="1" vertex="1">
                    <mxGeometry x="-640" y="520" width="60" height="20" as="geometry"/>
                </mxCell>
                <mxCell id="lsyRAzRpwurkiqTD15_6-91" style="edgeStyle=orthogonalEdgeStyle;curved=1;rounded=0;orthogonalLoop=1;jettySize=auto;html=1;exitX=0;exitY=0.5;exitDx=0;exitDy=0;entryX=0.75;entryY=0;entryDx=0;entryDy=0;" parent="1" source="lsyRAzRpwurkiqTD15_6-85" target="lsyRAzRpwurkiqTD15_6-74" edge="1">
                    <mxGeometry relative="1" as="geometry"/>
                </mxCell>
                <mxCell id="lsyRAzRpwurkiqTD15_6-94" style="edgeStyle=orthogonalEdgeStyle;curved=1;rounded=0;orthogonalLoop=1;jettySize=auto;html=1;exitX=0;exitY=0.5;exitDx=0;exitDy=0;entryX=1;entryY=0;entryDx=0;entryDy=0;" parent="1" source="lsyRAzRpwurkiqTD15_6-93" target="lsyRAzRpwurkiqTD15_6-74" edge="1">
                    <mxGeometry relative="1" as="geometry"/>
                </mxCell>
                <mxCell id="lsyRAzRpwurkiqTD15_6-98" value="&lt;span style=&quot;background-color: rgb(153, 76, 0);&quot;&gt;on-hook&lt;/span&gt;" style="edgeLabel;html=1;align=center;verticalAlign=middle;resizable=0;points=[];" parent="lsyRAzRpwurkiqTD15_6-94" vertex="1" connectable="0">
                    <mxGeometry x="-0.3" y="7" relative="1" as="geometry">
                        <mxPoint as="offset"/>
                    </mxGeometry>
                </mxCell>
                <mxCell id="lsyRAzRpwurkiqTD15_6-93" value="abandoned" style="rounded=1;whiteSpace=wrap;html=1;fillColor=#a20025;strokeColor=#6F0000;fontColor=#ffffff;" parent="1" vertex="1">
                    <mxGeometry x="-650" y="580" width="80" height="20" as="geometry"/>
                </mxCell>
                <mxCell id="lsyRAzRpwurkiqTD15_6-104" value="&lt;span style=&quot;color: rgb(249, 255, 254); font-family: &amp;quot;trebuchet ms&amp;quot;, verdana, arial, sans-serif; font-size: 16px; text-align: start; text-wrap: nowrap; background-color: rgb(13, 17, 23);&quot;&gt;Originator&lt;/span&gt;" style="text;html=1;align=center;verticalAlign=middle;whiteSpace=wrap;rounded=0;" parent="1" vertex="1">
                    <mxGeometry x="-230" y="20" width="60" height="30" as="geometry"/>
                </mxCell>
                <mxCell id="lsyRAzRpwurkiqTD15_6-108" value="&lt;span style=&quot;color: rgb(249, 255, 254); font-family: &amp;quot;trebuchet ms&amp;quot;, verdana, arial, sans-serif; font-size: 16px; text-align: start; text-wrap: nowrap; background-color: rgb(13, 17, 23);&quot;&gt;Receiver&lt;/span&gt;" style="text;html=1;align=center;verticalAlign=middle;whiteSpace=wrap;rounded=0;" parent="1" vertex="1">
                    <mxGeometry x="-760" y="20" width="60" height="30" as="geometry"/>
                </mxCell>
                <mxCell id="lsyRAzRpwurkiqTD15_6-124" value="&lt;span style=&quot;background-color: rgb(77, 77, 77);&quot;&gt;Timer&lt;/span&gt;" style="edgeLabel;html=1;align=center;verticalAlign=middle;resizable=0;points=[];fontFamily=Helvetica;fontSize=11;fontColor=default;labelBackgroundColor=default;" parent="1" vertex="1" connectable="0">
                    <mxGeometry x="-280.0024222822113" y="430.0044827586207" as="geometry">
                        <mxPoint x="-1" y="-1" as="offset"/>
                    </mxGeometry>
                </mxCell>
            </root>
        </mxGraphModel>
    </diagram>
</mxfile>